<svg width="190" height="32" viewBox="0 0 190 32" fill="none" xmlns="http://www.w3.org/2000/svg">
<g filter="url(#filter0_d_72_29)">
<path d="M34.72 23.06L31.18 11.16C31.0867 10.8533 30.9867 10.6333 30.88 10.5C30.7733 10.3533 30.5867 10.22 30.32 10.1L30.08 10V9.8H35.38V10L34.96 10.16C34.6533 10.28 34.4467 10.4267 34.34 10.6C34.2333 10.7733 34.2267 11.0133 34.32 11.32L36.5 19.64L38.86 12.66L38.4 11.24C38.3067 10.96 38.22 10.7467 38.14 10.6C38.06 10.4533 37.9267 10.3333 37.74 10.24L37.3 10V9.8H42.32V10L41.7 10.24C41.4333 10.3333 41.28 10.4733 41.24 10.66C41.2133 10.8333 41.2467 11.06 41.34 11.34L43.88 19.84L46.28 11.5C46.3733 11.18 46.4067 10.9 46.38 10.66C46.3533 10.42 46.1867 10.2467 45.88 10.14L45.46 10V9.8H48.24V10L47.72 10.2C47.4533 10.2933 47.2667 10.44 47.16 10.64C47.0533 10.84 46.96 11.0867 46.88 11.38L43.56 23.06H42.18L39.18 13.66L36.1 23.06H34.72ZM124.583 23.06L121.043 11.16C120.95 10.8533 120.85 10.6333 120.743 10.5C120.637 10.3533 120.45 10.22 120.183 10.1L119.943 10V9.8H125.243V10L124.823 10.16C124.517 10.28 124.31 10.4267 124.203 10.6C124.097 10.7733 124.09 11.0133 124.183 11.32L126.363 19.64L128.723 12.66L128.263 11.24C128.17 10.96 128.083 10.7467 128.003 10.6C127.923 10.4533 127.79 10.3333 127.603 10.24L127.163 10V9.8H132.183V10L131.563 10.24C131.297 10.3333 131.143 10.4733 131.103 10.66C131.077 10.8333 131.11 11.06 131.203 11.34L133.743 19.84L136.143 11.5C136.237 11.18 136.27 10.9 136.243 10.66C136.217 10.42 136.05 10.2467 135.743 10.14L135.323 10V9.8H138.103V10L137.583 10.2C137.317 10.2933 137.13 10.44 137.023 10.64C136.917 10.84 136.823 11.0867 136.743 11.38L133.423 23.06H132.043L129.043 13.66L125.963 23.06H124.583Z" fill="#9D0134"/>
<path d="M48.858 23V22.8L49.258 22.64C49.5246 22.5467 49.698 22.42 49.778 22.26C49.8713 22.1 49.918 21.8933 49.918 21.64V11.18C49.918 10.9133 49.8713 10.7 49.778 10.54C49.698 10.38 49.5246 10.2533 49.258 10.16L48.858 10V9.8H53.938V10L53.598 10.14C53.3446 10.2333 53.1713 10.36 53.078 10.52C52.9846 10.6667 52.938 10.8733 52.938 11.14V16H57.718V11.14C57.718 10.8733 57.6713 10.6667 57.578 10.52C57.498 10.36 57.3246 10.2333 57.058 10.14L56.698 10V9.8H61.798V10L61.398 10.16C61.1446 10.2533 60.9713 10.38 60.878 10.54C60.7846 10.7 60.738 10.9133 60.738 11.18V21.64C60.738 21.8933 60.7846 22.1 60.878 22.26C60.9713 22.42 61.1446 22.5467 61.398 22.64L61.798 22.8V23H56.698V22.8L57.058 22.68C57.3246 22.5733 57.498 22.4467 57.578 22.3C57.6713 22.14 57.718 21.9267 57.718 21.66V16.4H52.938V21.66C52.938 22.1533 53.158 22.4933 53.598 22.68L53.938 22.8V23H48.858ZM62.4061 23V22.8L62.9061 22.62C63.1728 22.5133 63.3794 22.3867 63.5261 22.24C63.6728 22.08 63.7928 21.86 63.8861 21.58L68.0061 9.76H69.7061L73.7661 21.66C73.8728 21.9533 73.9928 22.18 74.1261 22.34C74.2594 22.4867 74.4661 22.6133 74.7461 22.72L74.9861 22.8V23H69.9061V22.8L70.2061 22.7C70.4861 22.5933 70.6528 22.4467 70.7061 22.26C70.7728 22.06 70.7661 21.8267 70.6861 21.56L69.7461 18.68H65.3061L64.3461 21.5C64.2528 21.7933 64.2194 22.0267 64.2461 22.2C64.2861 22.3733 64.4461 22.5133 64.7261 22.62L65.1661 22.8V23H62.4061ZM65.4461 18.28H69.6261L67.6061 12.06L65.4461 18.28ZM76.9481 23V22.8L77.7681 22.6C78.3148 22.48 78.5881 22.1467 78.5881 21.6V10.2H76.8881C76.3948 10.2 76.0415 10.3333 75.8281 10.6C75.6148 10.8533 75.3881 11.2067 75.1481 11.66L74.4281 13.06H74.2281L74.3281 9.8H85.8681L85.9481 13.06H85.7481L85.0281 11.66C84.8015 11.2067 84.5815 10.8533 84.3681 10.6C84.1548 10.3333 83.8015 10.2 83.3081 10.2H81.6081V21.6C81.6081 22.1467 81.8815 22.48 82.4281 22.6L83.2481 22.8V23H76.9481ZM93.4911 23V22.8L94.3111 22.6C94.8578 22.48 95.1311 22.1467 95.1311 21.6V10.2H93.4311C92.9378 10.2 92.5844 10.3333 92.3711 10.6C92.1578 10.8533 91.9311 11.2067 91.6911 11.66L90.9711 13.06H90.7711L90.8711 9.8H102.411L102.491 13.06H102.291L101.571 11.66C101.344 11.2067 101.124 10.8533 100.911 10.6C100.698 10.3333 100.344 10.2 99.8511 10.2H98.1511V21.6C98.1511 22.1467 98.4244 22.48 98.9711 22.6L99.7911 22.8V23H93.4911ZM109.298 23.36C108.484 23.36 107.698 23.2133 106.938 22.92C106.191 22.6267 105.518 22.1933 104.918 21.62C104.331 21.0333 103.864 20.3067 103.518 19.44C103.171 18.5733 102.998 17.56 102.998 16.4C102.998 15.2533 103.171 14.2467 103.518 13.38C103.864 12.5133 104.338 11.7933 104.938 11.22C105.538 10.6333 106.211 10.1933 106.958 9.9C107.718 9.59333 108.498 9.44 109.298 9.44C110.111 9.44 110.891 9.58667 111.638 9.88C112.398 10.16 113.071 10.5933 113.658 11.18C114.258 11.7533 114.731 12.48 115.078 13.36C115.424 14.2267 115.598 15.24 115.598 16.4C115.598 17.5333 115.424 18.54 115.078 19.42C114.731 20.2867 114.258 21.0133 113.658 21.6C113.071 22.1733 112.398 22.6133 111.638 22.92C110.891 23.2133 110.111 23.36 109.298 23.36ZM109.298 22.94C110.031 22.94 110.624 22.7467 111.078 22.36C111.531 21.96 111.858 21.2867 112.058 20.34C112.271 19.38 112.378 18.0667 112.378 16.4C112.378 14.72 112.271 13.4067 112.058 12.46C111.858 11.5 111.531 10.8267 111.078 10.44C110.624 10.04 110.031 9.84 109.298 9.84C108.578 9.84 107.991 10.04 107.538 10.44C107.084 10.8267 106.751 11.5 106.538 12.46C106.338 13.4067 106.238 14.72 106.238 16.4C106.238 18.0667 106.338 19.38 106.538 20.34C106.751 21.2867 107.084 21.96 107.538 22.36C107.991 22.7467 108.578 22.94 109.298 22.94ZM136.234 23V22.8L136.734 22.62C137.001 22.5133 137.208 22.3867 137.354 22.24C137.501 22.08 137.621 21.86 137.714 21.58L141.834 9.76H143.534L147.594 21.66C147.701 21.9533 147.821 22.18 147.954 22.34C148.088 22.4867 148.294 22.6133 148.574 22.72L148.814 22.8V23H143.734V22.8L144.034 22.7C144.314 22.5933 144.481 22.4467 144.534 22.26C144.601 22.06 144.594 21.8267 144.514 21.56L143.574 18.68H139.134L138.174 21.5C138.081 21.7933 138.048 22.0267 138.074 22.2C138.114 22.3733 138.274 22.5133 138.554 22.62L138.994 22.8V23H136.234ZM139.274 18.28H143.454L141.434 12.06L139.274 18.28ZM150.776 23V22.8L151.596 22.6C152.143 22.48 152.416 22.1467 152.416 21.6V10.2H150.716C150.223 10.2 149.87 10.3333 149.656 10.6C149.443 10.8533 149.216 11.2067 148.976 11.66L148.256 13.06H148.056L148.156 9.8H159.696L159.776 13.06H159.576L158.856 11.66C158.63 11.2067 158.41 10.8533 158.196 10.6C157.983 10.3333 157.63 10.2 157.136 10.2H155.436V21.6C155.436 22.1467 155.71 22.48 156.256 22.6L157.076 22.8V23H150.776ZM167.203 23.36C165.909 23.36 164.736 23.1 163.683 22.58C162.643 22.0467 161.816 21.26 161.203 20.22C160.589 19.18 160.283 17.9067 160.283 16.4C160.283 15.2533 160.469 14.2467 160.843 13.38C161.216 12.5133 161.723 11.7867 162.363 11.2C163.016 10.6133 163.763 10.1733 164.603 9.88C165.456 9.58667 166.356 9.44 167.303 9.44C168.063 9.44 168.763 9.52667 169.403 9.7C170.043 9.87333 170.643 10.1133 171.203 10.42L171.283 12.88H171.083L170.083 11.28C169.949 11.0267 169.803 10.8 169.643 10.6C169.483 10.3867 169.283 10.2267 169.043 10.12C168.843 10.0267 168.643 9.96 168.443 9.92C168.256 9.86667 168.016 9.84 167.723 9.84C166.949 9.84 166.243 10.0467 165.603 10.46C164.976 10.8733 164.469 11.56 164.083 12.52C163.709 13.4667 163.523 14.7667 163.523 16.42C163.523 18.06 163.703 19.36 164.063 20.32C164.423 21.2667 164.909 21.9467 165.523 22.36C166.149 22.76 166.849 22.96 167.623 22.96C168.049 22.96 168.389 22.9333 168.643 22.88C168.896 22.8133 169.149 22.72 169.403 22.6C169.656 22.4933 169.849 22.34 169.983 22.14C170.116 21.9267 170.236 21.7 170.343 21.46L171.223 19.5H171.423L171.363 22.36C170.803 22.6533 170.176 22.8933 169.483 23.08C168.789 23.2667 168.029 23.36 167.203 23.36ZM172.374 23V22.8L172.774 22.64C173.04 22.5467 173.214 22.42 173.294 22.26C173.387 22.1 173.434 21.8933 173.434 21.64V11.18C173.434 10.9133 173.387 10.7 173.294 10.54C173.214 10.38 173.04 10.2533 172.774 10.16L172.374 10V9.8H177.454V10L177.114 10.14C176.86 10.2333 176.687 10.36 176.594 10.52C176.5 10.6667 176.454 10.8733 176.454 11.14V16H181.234V11.14C181.234 10.8733 181.187 10.6667 181.094 10.52C181.014 10.36 180.84 10.2333 180.574 10.14L180.214 10V9.8H185.314V10L184.914 10.16C184.66 10.2533 184.487 10.38 184.394 10.54C184.3 10.7 184.254 10.9133 184.254 11.18V21.64C184.254 21.8933 184.3 22.1 184.394 22.26C184.487 22.42 184.66 22.5467 184.914 22.64L185.314 22.8V23H180.214V22.8L180.574 22.68C180.84 22.5733 181.014 22.4467 181.094 22.3C181.187 22.14 181.234 21.9267 181.234 21.66V16.4H176.454V21.66C176.454 22.1533 176.674 22.4933 177.114 22.68L177.454 22.8V23H172.374Z" fill="white"/>
</g>
<g clip-path="url(#clip0_72_29)">
<path d="M4.81406 12.3727C5.28454 12.7538 5.85105 12.9391 6.41428 12.9391C7.15717 12.9391 7.8935 12.6169 8.39651 11.9961C9.27982 10.9043 9.11129 9.29754 8.02007 8.41395C7.49166 7.98585 6.83054 7.78907 6.15058 7.86014C5.47404 7.9312 4.86543 8.26141 4.43705 8.79025C4.00867 9.31909 3.81246 9.98278 3.88323 10.6595C3.95444 11.336 4.28507 11.9443 4.81406 12.3727ZM5.31707 9.50246C5.55481 9.20864 5.893 9.02513 6.26887 8.9856C6.31925 8.98032 6.36948 8.9779 6.41928 8.9779C6.74206 8.9779 7.05272 9.08735 7.30758 9.29355C7.91348 9.78443 8.00737 10.6772 7.51649 11.2835C7.0256 11.8901 6.13174 11.9836 5.52598 11.4927C5.23245 11.2547 5.04837 10.9167 5.00913 10.5409C4.96989 10.165 5.07891 9.79627 5.31707 9.50246Z" fill="#9D0134"/>
<path d="M16.1917 19.2023C15.5483 18.9809 14.8579 19.0229 14.246 19.3214C13.6347 19.6197 13.1759 20.1381 12.9542 20.7815C12.7324 21.4249 12.7751 22.1162 13.0731 22.7272C13.3716 23.3388 13.89 23.7976 14.5334 24.0191C14.8048 24.1127 15.0851 24.1592 15.3648 24.1592C15.7462 24.1592 16.126 24.0724 16.4793 23.9002C17.0906 23.602 17.5494 23.0834 17.7711 22.4401C17.9929 21.7968 17.9502 21.1054 17.6517 20.4941C17.3537 19.8828 16.8352 19.4239 16.1917 19.2023ZM16.7003 22.0714C16.5776 22.429 16.3227 22.7169 15.9828 22.8826C15.6429 23.0483 15.2603 23.0724 14.9016 22.9487C14.5444 22.8257 14.2566 22.5708 14.0906 22.2312C13.9248 21.8916 13.9016 21.5076 14.0249 21.1502C14.1476 20.7926 14.4024 20.5047 14.7423 20.339C14.9414 20.2417 15.1525 20.1959 15.3604 20.1959C15.8844 20.1959 16.3891 20.4883 16.6345 20.9904C16.8003 21.3302 16.8236 21.714 16.7003 22.0714Z" fill="#9D0134"/>
<path d="M21.5039 15.2688C21.1434 14.6917 20.5796 14.2899 19.9163 14.1365C19.2552 13.9845 18.572 14.0978 17.9938 14.4584C17.4167 14.8191 17.0149 15.3826 16.8617 16.0456C16.5461 17.414 17.4024 18.7843 18.771 19.1005C18.9628 19.1448 19.1546 19.166 19.3437 19.166C20.5028 19.166 21.5542 18.3678 21.8257 17.1915C21.9788 16.5288 21.8643 15.8458 21.5039 15.2688ZM20.7223 16.9371C20.5471 17.6968 19.7875 18.1717 19.0253 17.9976C18.2653 17.8218 17.7893 17.0603 17.9651 16.3001C18.0497 15.9319 18.2735 15.6191 18.5941 15.4187C18.8218 15.2763 19.0788 15.2031 19.3408 15.2031C19.4476 15.2031 19.5553 15.2153 19.6621 15.2397C20.0302 15.3248 20.3436 15.5483 20.5436 15.869C20.7444 16.189 20.8075 16.5686 20.7223 16.9371Z" fill="#9D0134"/>
<path d="M7.47782 16.0456C7.3247 15.3825 6.92286 14.819 6.34579 14.4584C5.76872 14.0978 5.08547 13.9832 4.42321 14.1366C3.7598 14.2897 3.196 14.6916 2.83568 15.2686C2.47537 15.8457 2.36078 16.5287 2.5139 17.1912C2.78531 18.3678 3.83672 19.1657 4.99586 19.1657C5.18493 19.1657 5.37672 19.1448 5.56851 19.1002C6.93728 18.7843 7.79347 17.414 7.47782 16.0456ZM5.31436 17.9972C4.55492 18.1736 3.79319 17.6967 3.61739 16.9366C3.5322 16.5685 3.59527 16.189 3.7959 15.8687C3.99597 15.548 4.30948 15.3244 4.6775 15.2397C4.78424 15.215 4.89197 15.203 4.99871 15.203C5.26071 15.203 5.51771 15.2762 5.74546 15.4186C6.0661 15.619 6.28999 15.9319 6.37447 16.2999C6.55028 17.0602 6.07438 17.8218 5.31436 17.9972Z" fill="#9D0134"/>
<path d="M14.717 7.62254C14.717 6.21795 13.5744 5.07536 12.1698 5.07536C10.7652 5.07536 9.62262 6.21795 9.62262 7.62254C9.62262 9.02712 10.7652 10.1697 12.1698 10.1697C13.5744 10.1697 14.717 9.02712 14.717 7.62254ZM12.1698 9.03754C11.3892 9.03754 10.7546 8.40267 10.7546 7.62239C10.7546 6.84212 11.3892 6.20725 12.1698 6.20725C12.9504 6.20725 13.5849 6.84212 13.5849 7.62239C13.5849 8.40267 12.9504 9.03754 12.1698 9.03754Z" fill="#9D0134"/>
<path d="M17.9252 12.9391C18.4885 12.9391 19.0551 12.7538 19.5255 12.3727C20.0544 11.9443 20.3851 11.336 20.4563 10.6592C20.5271 9.98263 20.3309 9.31866 19.9025 8.78996C19.0186 7.69874 17.4111 7.5305 16.32 8.41352C15.2282 9.29739 15.0597 10.9043 15.943 11.996C16.446 12.6167 17.1823 12.9391 17.9252 12.9391ZM17.0319 9.29354C17.6394 8.8018 18.5316 8.89641 19.0224 9.50245C19.2608 9.79627 19.3696 10.165 19.3303 10.5409C19.291 10.9167 19.1069 11.2548 18.8134 11.4927C18.2059 11.9844 17.3143 11.8901 16.8229 11.2835C16.3321 10.6771 16.4262 9.78442 17.0319 9.29354Z" fill="#9D0134"/>
<path d="M10.0937 19.3214C9.48176 19.0229 8.79124 18.9807 8.14795 19.2023C7.50467 19.4239 6.9861 19.8826 6.68814 20.4941C6.38962 21.1054 6.3471 21.7967 6.56871 22.4401C6.79032 23.0835 7.24909 23.602 7.86056 23.9002C8.21374 24.0724 8.59346 24.1592 8.97504 24.1592C9.25415 24.1592 9.53499 24.1128 9.8064 24.0191C10.4498 23.7977 10.9683 23.3388 11.2662 22.7275C11.5647 22.1162 11.6073 21.4249 11.3856 20.7815C11.164 20.1381 10.705 19.6195 10.0937 19.3214ZM10.2483 22.2315C10.0831 22.5708 9.79498 22.8257 9.43795 22.9487C9.07978 23.0725 8.69663 23.0481 8.35672 22.8826C8.01681 22.7171 7.76195 22.4291 7.63923 22.0714C7.51594 21.714 7.5392 21.33 7.70502 20.9904C7.95046 20.4883 8.45518 20.1959 8.97917 20.1959C9.18709 20.1959 9.39814 20.2418 9.5972 20.339C9.93711 20.5045 10.192 20.7925 10.3147 21.1502C10.438 21.5076 10.4147 21.8914 10.2483 22.2315Z" fill="#9D0134"/>
<path d="M29.9966 26.5223C29.9625 26.2119 29.6861 25.9856 29.3716 26.0223C24.7968 26.5241 22.9711 21.2524 22.8953 21.0277C22.876 20.9702 22.8424 20.9229 22.8083 20.8766C23.781 19.1283 24.3398 17.1196 24.3398 14.9809C24.3398 8.27054 18.8806 2.81116 12.1701 2.81116C5.45951 2.81116 0 8.27068 0 14.9809C0 21.6912 5.45923 27.1507 12.1698 27.1507C16.257 27.1507 19.8715 25.119 22.0795 22.0194C22.755 23.5228 24.8076 27.1888 28.7589 27.1888C28.9978 27.1888 29.2437 27.1753 29.4963 27.1472C29.8069 27.1129 30.0308 26.8329 29.9966 26.5223ZM12.1698 26.0187C6.08368 26.0187 1.13203 21.0672 1.13203 14.9809C1.13203 8.8947 6.08368 3.94319 12.1698 3.94319C18.2559 3.94319 23.2075 8.8947 23.2075 14.9809C23.2075 21.0672 18.2559 26.0187 12.1698 26.0187Z" fill="#9D0134"/>
</g>
<defs>
<filter id="filter0_d_72_29" x="26.08" y="9.44" width="163.234" height="21.92" filterUnits="userSpaceOnUse" color-interpolation-filters="sRGB">
<feFlood flood-opacity="0" result="BackgroundImageFix"/>
<feColorMatrix in="SourceAlpha" type="matrix" values="0 0 0 0 0 0 0 0 0 0 0 0 0 0 0 0 0 0 127 0" result="hardAlpha"/>
<feOffset dy="4"/>
<feGaussianBlur stdDeviation="2"/>
<feComposite in2="hardAlpha" operator="out"/>
<feColorMatrix type="matrix" values="0 0 0 0 0 0 0 0 0 0 0 0 0 0 0 0 0 0 0.25 0"/>
<feBlend mode="normal" in2="BackgroundImageFix" result="effect1_dropShadow_72_29"/>
<feBlend mode="normal" in="SourceGraphic" in2="effect1_dropShadow_72_29" result="shape"/>
</filter>
<clipPath id="clip0_72_29">
<rect width="30" height="30" fill="white"/>
</clipPath>
</defs>
</svg>
