<svg width="30" height="30" viewBox="0 0 30 30" fill="none" xmlns="http://www.w3.org/2000/svg">
<g clip-path="url(#clip0_72_9)">
<path d="M4.81412 12.3727C5.2846 12.7538 5.85111 12.9391 6.41434 12.9391C7.15723 12.9391 7.89356 12.6168 8.39657 11.9961C9.27988 10.9043 9.11135 9.29752 8.02013 8.41393C7.49172 7.98583 6.8306 7.78905 6.15064 7.86011C5.4741 7.93118 4.86549 8.26138 4.43711 8.79022C4.00873 9.31907 3.81252 9.98276 3.8833 10.6594C3.9545 11.336 4.28514 11.9443 4.81412 12.3727ZM5.31713 9.50243C5.55487 9.20862 5.89307 9.02511 6.26893 8.98558C6.31931 8.9803 6.36954 8.97787 6.41934 8.97787C6.74212 8.97787 7.05278 9.08732 7.30764 9.29352C7.91354 9.78441 8.00743 10.6771 7.51655 11.2835C7.02567 11.8901 6.1318 11.9835 5.52604 11.4927C5.23251 11.2546 5.04843 10.9167 5.00919 10.5409C4.96995 10.165 5.07897 9.79625 5.31713 9.50243Z" fill="#9D0134"/>
<path d="M16.1918 19.2022C15.5484 18.9809 14.858 19.0229 14.2461 19.3214C13.6348 19.6196 13.176 20.1381 12.9542 20.7815C12.7325 21.4249 12.7752 22.1161 13.0731 22.7272C13.3716 23.3388 13.8901 23.7976 14.5335 24.019C14.8049 24.1126 15.0852 24.1592 15.3649 24.1592C15.7463 24.1592 16.126 24.0724 16.4793 23.9002C17.0907 23.6019 17.5494 23.0834 17.7712 22.4401C17.9929 21.7968 17.9503 21.1054 17.6517 20.4941C17.3538 19.8828 16.8352 19.4239 16.1918 19.2022ZM16.7004 22.0713C16.5777 22.4289 16.3228 22.7169 15.9829 22.8826C15.643 23.0483 15.2604 23.0724 14.9017 22.9487C14.5445 22.8256 14.2567 22.5708 14.0907 22.2312C13.9249 21.8915 13.9016 21.5075 14.0249 21.1502C14.1476 20.7926 14.4025 20.5047 14.7424 20.339C14.9415 20.2417 15.1525 20.1959 15.3604 20.1959C15.8844 20.1959 16.3891 20.4882 16.6346 20.9904C16.8004 21.3302 16.8237 21.714 16.7004 22.0713Z" fill="#9D0134"/>
<path d="M21.5039 15.2688C21.1434 14.6917 20.5796 14.2899 19.9163 14.1365C19.2552 13.9845 18.572 14.0978 17.9938 14.4584C17.4167 14.8191 17.0149 15.3827 16.8617 16.0456C16.5461 17.414 17.4024 18.7843 18.771 19.1005C18.9628 19.1448 19.1546 19.166 19.3437 19.166C20.5028 19.166 21.5542 18.3678 21.8257 17.1915C21.9788 16.5288 21.8643 15.8459 21.5039 15.2688ZM20.7223 16.9371C20.5471 17.6968 19.7875 18.1717 19.0253 17.9976C18.2653 17.8218 17.7893 17.0604 17.9651 16.3001C18.0497 15.9319 18.2735 15.6191 18.5941 15.4188C18.8218 15.2763 19.0788 15.2031 19.3408 15.2031C19.4476 15.2031 19.5553 15.2153 19.6621 15.2397C20.0302 15.3249 20.3436 15.5483 20.5436 15.869C20.7444 16.189 20.8075 16.5686 20.7223 16.9371Z" fill="#9D0134"/>
<path d="M7.47788 16.0456C7.32477 15.3825 6.92293 14.819 6.34585 14.4584C5.76878 14.0978 5.08553 13.9832 4.42327 14.1366C3.75986 14.2897 3.19606 14.6915 2.83575 15.2686C2.47543 15.8457 2.36084 16.5286 2.51396 17.1912C2.78537 18.3677 3.83678 19.1657 4.99592 19.1657C5.185 19.1657 5.37678 19.1447 5.56857 19.1002C6.93734 18.7843 7.79353 17.4139 7.47788 16.0456ZM5.31442 17.9971C4.55498 18.1735 3.79325 17.6966 3.61745 16.9366C3.53226 16.5684 3.59533 16.189 3.79597 15.8687C3.99603 15.548 4.30954 15.3244 4.67756 15.2396C4.7843 15.2149 4.89204 15.203 4.99877 15.203C5.26077 15.203 5.51777 15.2762 5.74552 15.4186C6.06616 15.6189 6.29006 15.9319 6.37453 16.2999C6.55034 17.0602 6.07444 17.8218 5.31442 17.9971Z" fill="#9D0134"/>
<path d="M14.7169 7.62255C14.7169 6.21797 13.5743 5.07538 12.1697 5.07538C10.7651 5.07538 9.62256 6.21797 9.62256 7.62255C9.62256 9.02714 10.7651 10.1697 12.1697 10.1697C13.5743 10.1697 14.7169 9.02714 14.7169 7.62255ZM12.1697 9.03755C11.3892 9.03755 10.7546 8.40269 10.7546 7.62241C10.7546 6.84213 11.3892 6.20727 12.1697 6.20727C12.9503 6.20727 13.5849 6.84213 13.5849 7.62241C13.5849 8.40269 12.9503 9.03755 12.1697 9.03755Z" fill="#9D0134"/>
<path d="M17.9253 12.9391C18.4885 12.9391 19.0552 12.7538 19.5255 12.3727C20.0545 11.9443 20.3851 11.336 20.4563 10.6592C20.5271 9.98263 20.3309 9.31866 19.9025 8.78996C19.0187 7.69874 17.4112 7.5305 16.3201 8.41352C15.2283 9.29739 15.0598 10.9043 15.9431 11.996C16.4461 12.6167 17.1824 12.9391 17.9253 12.9391ZM17.032 9.29354C17.6395 8.8018 18.5316 8.89641 19.0225 9.50245C19.2608 9.79627 19.3697 10.165 19.3303 10.5409C19.2911 10.9167 19.107 11.2548 18.8135 11.4927C18.206 11.9844 17.3144 11.8901 16.823 11.2835C16.3322 10.6771 16.4262 9.78442 17.032 9.29354Z" fill="#9D0134"/>
<path d="M10.0937 19.3214C9.48182 19.0229 8.7913 18.9806 8.14801 19.2022C7.50473 19.4239 6.98616 19.8826 6.68821 20.4941C6.38968 21.1054 6.34716 21.7966 6.56877 22.4401C6.79038 23.0835 7.24915 23.6019 7.86062 23.9002C8.2138 24.0724 8.59352 24.1592 8.9751 24.1592C9.25422 24.1592 9.53505 24.1128 9.80646 24.019C10.4499 23.7977 10.9683 23.3388 11.2663 22.7275C11.5648 22.1161 11.6073 21.4249 11.3857 20.7815C11.1641 20.1381 10.705 19.6195 10.0937 19.3214ZM10.2484 22.2314C10.0832 22.5708 9.79504 22.8256 9.43801 22.9487C9.07984 23.0725 8.69669 23.0481 8.35678 22.8826C8.01687 22.7171 7.76201 22.4291 7.63929 22.0713C7.516 21.714 7.53926 21.33 7.70508 20.9904C7.95052 20.4882 8.45525 20.1959 8.97924 20.1959C9.18715 20.1959 9.3982 20.2418 9.59726 20.339C9.93717 20.5045 10.192 20.7925 10.3148 21.1502C10.438 21.5075 10.4148 21.8914 10.2484 22.2314Z" fill="#9D0134"/>
<path d="M29.9966 26.5223C29.9625 26.2119 29.6861 25.9856 29.3716 26.0223C24.7968 26.5241 22.9711 21.2524 22.8953 21.0277C22.876 20.9702 22.8424 20.9229 22.8083 20.8765C23.781 19.1283 24.3398 17.1196 24.3398 14.9809C24.3398 8.27053 18.8806 2.81116 12.1701 2.81116C5.45951 2.81116 0 8.27067 0 14.9809C0 21.6912 5.45923 27.1507 12.1698 27.1507C16.257 27.1507 19.8715 25.119 22.0795 22.0194C22.755 23.5227 24.8076 27.1888 28.7589 27.1888C28.9978 27.1888 29.2437 27.1753 29.4963 27.1472C29.8069 27.1129 30.0308 26.8329 29.9966 26.5223ZM12.1698 26.0187C6.08368 26.0187 1.13203 21.0672 1.13203 14.9809C1.13203 8.89469 6.08368 3.94319 12.1698 3.94319C18.2559 3.94319 23.2075 8.89469 23.2075 14.9809C23.2075 21.0672 18.2559 26.0187 12.1698 26.0187Z" fill="#9D0134"/>
</g>
<defs>
<clipPath id="clip0_72_9">
<rect width="30" height="30" fill="white"/>
</clipPath>
</defs>
</svg>
